<svg width="15" height="13" viewBox="0 0 12 10" fill="none" xmlns="http://www.w3.org/2000/svg">
<path fill-rule="evenodd" clip-rule="evenodd" d="M7.05357 9.0068C6.75395 9.2928 6.27921 9.28177 5.9932 8.98214C5.70719 8.68252 5.71823 8.20778 6.01785 7.92177L8.59233 5.46428L1.53571 5.46429C1.1215 5.46429 0.785715 5.1285 0.785715 4.71428C0.785715 4.30007 1.1215 3.96429 1.53571 3.96429L8.5924 3.96428L6.01786 1.5068C5.71824 1.2208 5.70719 0.746056 5.9932 0.446431C6.2792 0.146805 6.75394 0.135762 7.05357 0.421765L10.9821 4.17172C11.1304 4.31324 11.2143 4.50927 11.2143 4.71423C11.2143 4.9192 11.1304 5.11523 10.9821 5.25675L7.05357 9.0068Z" fill="#611f69"/>
</svg>

