<svg width="24" height="24" viewBox="0 0 22 22" fill="none" xmlns="http://www.w3.org/2000/svg"><path fill-rule="evenodd" clip-rule="evenodd" d="M19.5686 0.714404C19.4986 0.574771 19.2983 0.574829 19.2316 0.714404L18.7463 1.68315C18.5998 1.97275 18.3664 2.21287 18.0734 2.35601L17.3156 2.73491L17.1047 2.84136C16.9649 2.91125 16.9649 3.11168 17.1047 3.17827L18.0734 3.66362C18.363 3.81009 18.6032 4.04355 18.7463 4.33647L19.1262 5.09429L19.2316 5.30522C19.3016 5.445 19.502 5.44502 19.5686 5.30522L20.0539 4.33647C20.2004 4.04688 20.4338 3.80676 20.7268 3.66362L21.6955 3.17827C21.8351 3.1083 21.8351 2.90796 21.6955 2.84136L21.4699 2.72808L20.7268 2.35601C20.4372 2.20954 20.197 1.97608 20.0539 1.68315L19.5686 0.714404ZM15.4102 5.54082C15.3227 5.36637 15.0735 5.36637 14.9902 5.54082L14.3828 6.75176C14.1997 7.11376 13.9082 7.41366 13.542 7.59258L12.3311 8.2C12.1566 8.28745 12.1566 8.53663 12.3311 8.61992L12.6123 8.76055L12.4365 8.40996L12.6133 8.76055L13.542 9.22734C13.904 9.41042 14.2039 9.70201 14.3828 10.0682L14.8584 11.0154L14.9902 11.2791C15.0777 11.4535 15.3269 11.4535 15.4102 11.2791L16.0176 10.0682C16.2007 9.70617 16.4922 9.40626 16.8584 9.22734L18.0693 8.61992C18.2438 8.53248 18.2438 8.28329 18.0693 8.2L16.8584 7.59258C16.4964 7.4095 16.1965 7.11792 16.0176 6.75176L15.5518 5.82207L15.4102 5.54082ZM18.2002 18.6097V13.5101C18.2002 13.0131 17.7969 12.6097 17.2998 12.6097C16.8027 12.6097 16.3994 13.0131 16.3994 13.5101V18.6097C16.3994 19.4381 15.7278 20.1097 14.8994 20.1097H4.09961C3.27127 20.1096 2.59961 19.4381 2.59961 18.6097V4.2103C2.59961 3.38194 3.27127 2.71041 4.09961 2.7103H14C14.497 2.7102 14.8994 2.3069 14.8994 1.80991C14.8994 1.31292 14.497 0.909627 14 0.909522H4.09961C2.27716 0.909628 0.799807 2.38783 0.799807 4.2103V18.6097C0.799807 20.4322 2.27716 21.9094 4.09961 21.9095H14.8994C16.722 21.9095 18.2002 20.4323 18.2002 18.6097ZM6.2002 8.40952C5.70314 8.40952 5.29981 8.81286 5.29981 9.30991C5.29981 9.80697 5.70314 10.2103 6.2002 10.2103H9.79981C10.2969 10.2103 10.7002 9.80697 10.7002 9.30991C10.7002 8.81286 10.2969 8.40952 9.79981 8.40952H6.2002ZM5.29961 12.9099C5.29961 12.4129 5.70295 12.0095 6.2 12.0095H10.9998C11.4969 12.0095 11.9002 12.4129 11.9002 12.9099C11.9002 13.407 11.4969 13.8103 10.9998 13.8103H6.2C5.70295 13.8103 5.29961 13.407 5.29961 12.9099ZM6.19981 15.6095C5.70275 15.6095 5.29942 16.0129 5.29942 16.5099C5.29942 17.007 5.70275 17.4103 6.19981 17.4103H12.1998C12.6969 17.4103 13.1002 17.007 13.1002 16.5099C13.1002 16.0129 12.6969 15.6095 12.1998 15.6095H6.19981Z" fill="#1D1C1D"></path></svg>