<svg width="45" height="45" viewBox="0 0 45 45" fill="none" xmlns="http://www.w3.org/2000/svg">
<mask id="mask0_6979_25204" style="mask-type:luminance" maskUnits="userSpaceOnUse" x="0" y="0" width="45" height="45">
<path d="M33.75 0H11.25C5.0368 0 0 5.0368 0 11.25V33.75C0 39.9632 5.0368 45 11.25 45H33.75C39.9632 45 45 39.9632 45 33.75V11.25C45 5.0368 39.9632 0 33.75 0Z" fill="white"/>
</mask>
<g mask="url(#mask0_6979_25204)">
<mask id="mask1_6979_25204" style="mask-type:alpha" maskUnits="userSpaceOnUse" x="0" y="0" width="45" height="45">
<path d="M45 0H0V45H45V0Z" fill="#D9D9D9"/>
</mask>
<g mask="url(#mask1_6979_25204)">
<path d="M45 0H0V45H45V0Z" fill="white"/>
<path d="M45.1318 66.5332C56.9515 66.5332 66.5332 56.9515 66.5332 45.1318C66.5332 33.3122 56.9515 23.7305 45.1318 23.7305C33.3122 23.7305 23.7305 33.3122 23.7305 45.1318C23.7305 56.9515 33.3122 66.5332 45.1318 66.5332Z" fill="#EDB22E"/>
<path d="M-0.131836 66.5332C11.6878 66.5332 21.2695 56.9515 21.2695 45.1318C21.2695 33.3122 11.6878 23.7305 -0.131836 23.7305C-11.9515 23.7305 -21.5332 33.3122 -21.5332 45.1318C-21.5332 56.9515 -11.9515 66.5332 -0.131836 66.5332Z" fill="#E01E59"/>
<path d="M45.1318 21.2695C56.9515 21.2695 66.5332 11.6878 66.5332 -0.131836C66.5332 -11.9515 56.9515 -21.5332 45.1318 -21.5332C33.3122 -21.5332 23.7305 -11.9515 23.7305 -0.131836C23.7305 11.6878 33.3122 21.2695 45.1318 21.2695Z" fill="#2EB57D"/>
<path d="M-0.131836 21.2695C11.6878 21.2695 21.2695 11.6878 21.2695 -0.131836C21.2695 -11.9515 11.6878 -21.5332 -0.131836 -21.5332C-11.9515 -21.5332 -21.5332 -11.9515 -21.5332 -0.131836C-21.5332 11.6878 -11.9515 21.2695 -0.131836 21.2695Z" fill="#36C4F0"/>
<path d="M8.96436 13.1836C6.23975 13.1836 4.13037 14.0625 3.07568 15.1172" stroke="#3D0F3D" stroke-width="5.00977" stroke-linecap="round"/>
<path d="M36.0347 12.7578C39.1987 12.7578 40.8687 13.5488 41.9233 14.6035" stroke="#3D0F3D" stroke-width="5.00977" stroke-linecap="round"/>
<path d="M37.3535 26.8516C39.7077 26.8516 41.6162 24.9431 41.6162 22.5889C41.6162 20.2346 39.7077 18.3262 37.3535 18.3262C34.9993 18.3262 33.0908 20.2346 33.0908 22.5889C33.0908 24.9431 34.9993 26.8516 37.3535 26.8516Z" fill="#3D0F3D" stroke="white" stroke-width="1.49414"/>
<path d="M38.7241 22.4977C39.4298 22.4977 40.0019 21.9327 40.0019 21.2357C40.0019 20.5387 39.4298 19.9736 38.7241 19.9736C38.0184 19.9736 37.4463 20.5387 37.4463 21.2357C37.4463 21.9327 38.0184 22.4977 38.7241 22.4977Z" fill="white"/>
<path d="M7.64648 26.8516C10.0007 26.8516 11.9092 24.9431 11.9092 22.5889C11.9092 20.2346 10.0007 18.3262 7.64648 18.3262C5.29226 18.3262 3.38379 20.2346 3.38379 22.5889C3.38379 24.9431 5.29226 26.8516 7.64648 26.8516Z" fill="#3D0F3D" stroke="white" stroke-width="1.49414"/>
<path d="M9.01706 22.4977C9.72276 22.4977 10.2949 21.9327 10.2949 21.2357C10.2949 20.5387 9.72276 19.9736 9.01706 19.9736C8.31135 19.9736 7.73926 20.5387 7.73926 21.2357C7.73926 21.9327 8.31135 22.4977 9.01706 22.4977Z" fill="white"/>
<path d="M16.2593 24.082C19.5552 26.499 24.5649 26.9385 28.7397 24.082" stroke="#3D0F3D" stroke-width="2.63672" stroke-linecap="round"/>
<path d="M19.9507 30.1914C21.0493 30.543 23.3345 30.8066 24.9604 30.1914" stroke="#E8E8E8" stroke-width="2.63672" stroke-linecap="round"/>
</g>
</g>
</svg>
